<?xml version="1.0" encoding="utf-8"?>
<!-- Generator: Adobe Illustrator 17.1.0, SVG Export Plug-In . SVG Version: 6.00 Build 0)  -->
<!DOCTYPE svg PUBLIC "-//W3C//DTD SVG 1.1//EN" "http://www.w3.org/Graphics/SVG/1.1/DTD/svg11.dtd">
<svg version="1.1" id="Layer_1" xmlns="http://www.w3.org/2000/svg" xmlns:xlink="http://www.w3.org/1999/xlink" x="0px" y="0px"
	 viewBox="0 0 274 157" enable-background="new 0 0 274 157" xml:space="preserve">
<g>
	<path fill="#FDBB30" d="M138.5,101.1c-3.2,0-4.8-3.1-6-8.1c-2.1-9.1-9.5-42.1-9.5-63.4c0-16.2,6.1-21.6,15.4-21.6
		c9.3,0,15.4,5.5,15.4,21.6c0,21.3-7.3,54.3-9.5,63.4C143.3,98.1,141.7,101.1,138.5,101.1z"/>
	<path fill="#FDBB30" d="M162,98.1c-1.6-0.7-1.9-2.9-1.2-6.4c2.6-12,8.3-39.3,13.2-53.5c3.7-10.4,10.6-13.6,16.4-11.2
		c7.8,3.3,7.7,12.1,4.8,19.4c-5.3,13.5-22.4,39-27.7,48.1C165.9,97.6,164,99,162,98.1z"/>
	<path fill="#FDBB30" d="M185.1,98.3c-1.2-1-1.3-2.6,0.1-4.9c4.6-7.6,19.5-29.8,26.6-38.7c5.1-6.5,10.5-7.1,14.3-4.3
		c5.4,4,2.6,11.8-2.3,18.5c-7.2,9.8-24.5,23.2-33.9,28.4C187.5,98.6,186.3,99.4,185.1,98.3z"/>
	<path fill="#FDBB30" d="M114.9,98.1c1.6-0.7,1.9-2.9,1.2-6.4c-2.6-12-8.3-39.3-13.2-53.5C99.2,27.8,92.2,24.6,86.4,27
		c-7.8,3.3-7.7,12.1-4.8,19.4c5.3,13.5,22.4,39,27.7,48.1C111.1,97.6,113,99,114.9,98.1z"/>
	<path fill="#FDBB30" d="M91.9,98.3c1.3-1,1.3-2.6-0.1-4.9c-4.6-7.6-19.5-29.8-26.6-38.7c-5.1-6.5-10.6-7.1-14.4-4.3
		c-5.4,4-2.6,11.8,2.3,18.5c7.2,9.8,24.5,23.2,33.9,28.4C89.5,98.6,90.7,99.4,91.9,98.3z"/>
</g>
<g>
	<path d="M8,111h7.7v11.1c0.8-0.8,2.7-2.7,6.3-2.7c2,0,4,0.5,5.6,2.1c2,1.8,2,4,2,6.9v11.8h-7.5v-10.9c0-1.7,0-5-3.1-5
		c-2.4,0-3,2-3.2,2.8c-0.2,0.9-0.2,2.2-0.2,3.9v9.2H8V111z"/>
	<path d="M39,131.5c0,1.1,0,4.9,3.9,4.9c2,0,3.3-1,3.5-2.9h7.1c-0.6,5.1-5.3,7.1-10.6,7.1c-7.1,0-10.9-3.6-10.9-10.3
		c0-6.8,3.3-11.2,10.8-11.2c5.7,0,8.3,2.3,9.6,5.2c0.9,1.7,1.1,3.7,1.1,7.2H39z M46.4,127.4c-0.1-1.2-0.3-4.2-3.6-4.2
		c-3.3,0-3.6,3.3-3.7,4.2H46.4z"/>
	<path d="M69.5,140.1c-0.2-0.7-0.2-1.6-0.2-2.9c-0.9,1.4-2.5,3.3-6.7,3.3c-5,0-7.1-2.7-7.1-6.3c0-5.5,5.1-7.5,13.8-7.2
		c0-2.2-0.2-4.2-2.5-4.2c-1.4,0-2.7,0.8-2.7,3.1h-7.3c0-0.9,0-2.7,1.6-4.2c1.6-1.6,4.7-2.5,8.4-2.5c1.8,0,5.7,0.2,7.8,2.3
		c1.3,1.3,1.8,3.1,1.8,5.3v9.4c0,1.5,0,1.9,0.4,3.9H69.5z M62.9,133.6c0,1.5,1,2.7,2.8,2.7c0.8,0,2.2-0.3,3-1.9
		c0.6-1.3,0.6-2.9,0.6-3.8C66,130.6,62.9,130.6,62.9,133.6"/>
	<rect x="79.8" y="111" width="7.6" height="29.1"/>
	<path d="M91.3,111.1H99v5.4h-7.8V111.1z M91.4,119.9H99v20.3h-7.6V119.9z"/>
	<path d="M102.8,124.2l-0.2-4.3h7.6l0.1,3.1c0.9-1.5,2.5-3.6,6.7-3.6c7.4,0,7.4,5.7,7.4,8.4v12.3h-7.6v-11.6c0-1.4,0-4.3-3.1-4.3
		c-3.4,0-3.4,3.6-3.4,4.3v11.6h-7.5V124.2z"/>
	<path d="M150.5,119.7v18.9c0,2.4-0.5,5.3-3.2,7.2c-1.7,1.3-4.2,2.3-8.4,2.3c-2.3,0-6.1-0.3-8.4-2.4c-1.8-1.6-1.8-3.5-1.9-4.5h7.1
		c0,1.5,1.1,2.6,3.3,2.6c3.8,0,4-2.7,4-4.9v-2.7c-2.1,3.1-5.4,3.3-6.5,3.3c-4.3,0-9-2.7-9-10.1c0-5.5,2.9-10.1,9.1-10.1
		c3.9,0,5.7,1.8,6.7,3.4v-3.1H150.5z M139.4,123.6c-2.5,0-3.9,2.3-3.9,5.7c0,2.1,0.5,5.7,3.8,5.7c3.6,0,3.8-4.3,3.8-5.7
		C143,128.2,143,123.6,139.4,123.6"/>
	<path d="M168.1,126.1c-0.2-3.1-2.2-4.6-5.5-4.6c-3.7,0-6,3.9-6,8.5c0,4.6,2.3,8.6,6,8.6c3.1,0,5.3-1.9,5.5-4.7h2.6
		c-0.6,4.6-3.3,6.9-7.9,6.9c-6.1,0-8.9-5.2-8.9-10.7c0-5.5,3-10.7,9-10.7c4.2,0,7.6,2.5,7.8,6.8H168.1z"/>
	<path d="M175.9,130.6c0.1,4.3,2.1,8,7,8c2.9,0,5.2-2.1,5.8-4.8h2.5c-1.2,4.8-4.3,7.1-9.2,7.1c-6.1,0-8.9-5.2-8.9-10.7
		c0-5.5,3-10.7,9-10.7c6.8,0,9.2,5,9.2,11.3H175.9z M188.9,128.3c-0.3-3.9-2.4-6.9-6.6-6.9c-4,0-6.1,3.3-6.4,6.9H188.9z"/>
	<path d="M197.5,140.1h-2.4v-15.7c0-1.6-0.1-3.2-0.2-4.6h2.5l0.1,3l0.1,0.1c1.4-2.5,3.7-3.7,6.3-3.7c6.6,0,7.1,5.9,7.1,8.2v12.7
		h-2.4v-13.1c0-3.5-2-5.6-5.3-5.6c-4,0-5.8,3.4-5.8,7V140.1z"/>
	<path d="M218.2,122.1h-4v-2.2h4v-4.3l2.4-1v5.4h4.6v2.2h-4.6v13.6c0,1.9,0.9,2.9,2.8,2.9c0.7,0,1.5,0,2.1-0.2v2.1
		c-0.8,0.2-1.7,0.4-2.5,0.4c-5.1,0-4.8-3.3-4.8-6V122.1z"/>
	<path d="M230.3,130.6c0.1,4.3,2.1,8,7,8c2.9,0,5.2-2.1,5.8-4.8h2.5c-1.3,4.8-4.3,7.1-9.2,7.1c-6.1,0-8.9-5.2-8.9-10.7
		c0-5.5,3-10.7,9-10.7c6.8,0,9.2,5,9.2,11.3H230.3z M243.4,128.3c-0.3-3.9-2.4-6.9-6.6-6.9c-4,0-6.1,3.3-6.4,6.9H243.4z"/>
	<path d="M252,140.1h-2.4v-15.7c0-1.6-0.1-3.2-0.2-4.6h2.5l0.1,3h0.1c0.7-2.1,2.5-3.5,4.6-3.6c0.8,0,1.6,0,2.4,0v2.3
		c-0.5,0-1-0.2-1.5-0.2c-3.6,0-5.5,2.6-5.6,6.5V140.1z"/>
	<path d="M31.5,100.3h-2.3V99h2.3v-2.5l1.4-0.6V99h2.7v1.3h-2.7v7.9c0,1.1,0.5,1.7,1.6,1.7c0.4,0,0.8,0,1.2-0.1v1.2
		c-0.4,0.1-1,0.2-1.4,0.2c-3,0-2.8-1.9-2.8-3.5V100.3z"/>
	<path d="M39.1,100.8L39.1,100.8c0.9-1.5,2.2-2.1,3.7-2.1c3.8,0,4.1,3.4,4.1,4.7v7.3h-1.4v-7.6c0-2-1.2-3.2-3.1-3.2
		c-2.3,0-3.4,1.9-3.4,4v6.8h-1.4V93.8h1.4V100.8z"/>
	<path d="M50.9,105.2c0,2.5,1.2,4.6,4.1,4.6c1.7,0,3-1.2,3.4-2.8h1.5c-0.7,2.8-2.5,4.1-5.3,4.1c-3.5,0-5.1-3-5.1-6.2
		c0-3.2,1.8-6.2,5.2-6.2c3.9,0,5.4,2.9,5.4,6.5H50.9z M58.5,103.9c-0.2-2.3-1.4-4-3.8-4c-2.3,0-3.5,1.9-3.7,4H58.5z"/>
	<path d="M257.8,137.1c0-1.8,1.5-3.3,3.4-3.3c1.8,0,3.3,1.5,3.3,3.3c0,1.8-1.5,3.4-3.3,3.4C259.3,140.4,257.8,138.9,257.8,137.1
		 M261.1,139.9c1.6,0,2.8-1.2,2.8-2.8c0-1.6-1.2-2.8-2.8-2.8c-1.6,0-2.8,1.2-2.8,2.8C258.3,138.7,259.5,139.9,261.1,139.9
		 M262.8,137.7c-0.1,0.8-0.8,1.3-1.5,1.3c-1.1,0-1.9-0.8-1.9-1.9c0-1.1,0.7-1.9,1.8-1.9c0.8,0,1.5,0.5,1.6,1.3h-0.5
		c-0.1-0.5-0.5-0.8-1.1-0.8c-0.9,0-1.3,0.7-1.3,1.5c0,0.7,0.5,1.5,1.3,1.5c0.5,0,1-0.4,1-0.9H262.8z"/>
</g>
</svg>
