<?xml version="1.0" encoding="utf-8"?>
<!-- Generator: Adobe Illustrator 17.1.0, SVG Export Plug-In . SVG Version: 6.00 Build 0)  -->
<!DOCTYPE svg PUBLIC "-//W3C//DTD SVG 1.1//EN" "http://www.w3.org/Graphics/SVG/1.1/DTD/svg11.dtd">
<svg version="1.1" id="Layer_1" xmlns="http://www.w3.org/2000/svg" xmlns:xlink="http://www.w3.org/1999/xlink" x="0px" y="0px"
	 viewBox="0 0 279 52" enable-background="new 0 0 279 52" xml:space="preserve">
<g>
	<path d="M11,9h7.7v11.1c0.8-0.8,2.7-2.7,6.3-2.7c2,0,4,0.5,5.6,2.1c2,1.8,2,4,2,6.9v11.8h-7.5V27.2c0-1.7,0-5-3.1-5
		c-2.4,0-3,2-3.2,2.8c-0.2,0.9-0.2,2.2-0.2,3.9v9.2H11V9z"/>
	<path d="M42,29.5c0,1.1,0,4.9,3.9,4.9c2,0,3.3-1,3.5-2.9h7.1c-0.6,5.1-5.3,7.1-10.6,7.1C38.8,38.6,35,35,35,28.3
		c0-6.8,3.3-11.2,10.8-11.2c5.7,0,8.3,2.3,9.6,5.2c0.9,1.7,1.1,3.7,1.1,7.2H42z M49.4,25.4c-0.1-1.2-0.3-4.2-3.6-4.2
		c-3.3,0-3.6,3.3-3.7,4.2H49.4z"/>
	<path d="M72.5,38.1c-0.2-0.7-0.2-1.6-0.2-2.9c-0.9,1.4-2.5,3.3-6.7,3.3c-5,0-7.1-2.7-7.1-6.3c0-5.5,5.1-7.5,13.8-7.2
		c0-2.2-0.2-4.2-2.5-4.2c-1.4,0-2.7,0.8-2.7,3.1h-7.3c0-0.9,0-2.7,1.6-4.2c1.6-1.6,4.7-2.5,8.4-2.5c1.8,0,5.7,0.2,7.8,2.3
		c1.3,1.3,1.8,3.1,1.8,5.3v9.4c0,1.5,0,1.9,0.4,3.9H72.5z M65.9,31.6c0,1.5,1,2.7,2.8,2.7c0.8,0,2.2-0.3,3-1.9
		c0.6-1.3,0.6-2.9,0.6-3.8C69,28.6,65.9,28.6,65.9,31.6"/>
	<rect x="82.8" y="9" width="7.6" height="29.1"/>
	<path d="M94.3,9.1h7.8v5.4h-7.8V9.1z M94.4,17.9h7.6v20.3h-7.6V17.9z"/>
	<path d="M105.8,22.2l-0.2-4.3h7.6l0.1,3.1c0.9-1.5,2.5-3.6,6.7-3.6c7.4,0,7.4,5.7,7.4,8.4v12.3h-7.6V26.5c0-1.4,0-4.3-3.1-4.3
		c-3.4,0-3.4,3.6-3.4,4.3v11.6h-7.5V22.2z"/>
	<path d="M153.5,17.7v18.9c0,2.4-0.5,5.3-3.2,7.2c-1.7,1.3-4.2,2.3-8.4,2.3c-2.3,0-6.1-0.3-8.4-2.4c-1.8-1.6-1.8-3.5-1.9-4.5h7.1
		c0,1.5,1.1,2.6,3.3,2.6c3.8,0,4-2.7,4-4.9v-2.7c-2.1,3.1-5.4,3.3-6.5,3.3c-4.3,0-9-2.7-9-10.1c0-5.5,2.9-10.1,9.1-10.1
		c3.9,0,5.7,1.8,6.7,3.4v-3.1H153.5z M142.4,21.6c-2.5,0-3.9,2.3-3.9,5.7c0,2.1,0.5,5.7,3.8,5.7c3.6,0,3.8-4.3,3.8-5.7
		C146,26.2,146,21.6,142.4,21.6"/>
	<path d="M171.1,24.1c-0.2-3.1-2.2-4.6-5.5-4.6c-3.7,0-6,3.9-6,8.5c0,4.6,2.3,8.6,6,8.6c3.1,0,5.3-1.9,5.5-4.7h2.6
		c-0.6,4.6-3.3,6.9-7.9,6.9c-6.1,0-8.9-5.2-8.9-10.7c0-5.5,3-10.7,9-10.7c4.2,0,7.6,2.5,7.8,6.8H171.1z"/>
	<path d="M178.9,28.6c0.1,4.3,2.1,8,7,8c2.9,0,5.2-2.1,5.8-4.8h2.5c-1.2,4.8-4.3,7.1-9.2,7.1c-6.1,0-8.9-5.2-8.9-10.7
		c0-5.5,3-10.7,9-10.7c6.8,0,9.2,5,9.2,11.3H178.9z M191.9,26.3c-0.3-3.9-2.4-6.9-6.6-6.9c-4,0-6.1,3.3-6.4,6.9H191.9z"/>
	<path d="M200.5,38.1h-2.4V22.4c0-1.6-0.1-3.2-0.2-4.6h2.5l0.1,3l0.1,0.1c1.4-2.5,3.7-3.7,6.3-3.7c6.6,0,7.1,5.9,7.1,8.2v12.7h-2.4
		V25.1c0-3.5-2-5.6-5.3-5.6c-4,0-5.8,3.4-5.8,7V38.1z"/>
	<path d="M221.2,20.1h-4v-2.2h4v-4.3l2.4-1v5.4h4.6v2.2h-4.6v13.6c0,1.9,0.9,2.9,2.8,2.9c0.7,0,1.5,0,2.1-0.2v2.1
		c-0.8,0.2-1.7,0.4-2.5,0.4c-5.1,0-4.8-3.3-4.8-6V20.1z"/>
	<path d="M233.3,28.6c0.1,4.3,2.1,8,7,8c2.9,0,5.2-2.1,5.8-4.8h2.5c-1.3,4.8-4.3,7.1-9.2,7.1c-6.1,0-8.9-5.2-8.9-10.7
		c0-5.5,3-10.7,9-10.7c6.8,0,9.2,5,9.2,11.3H233.3z M246.4,26.3c-0.3-3.9-2.4-6.9-6.6-6.9c-4,0-6.1,3.3-6.4,6.9H246.4z"/>
	<path d="M255,38.1h-2.4V22.4c0-1.6-0.1-3.2-0.2-4.6h2.5l0.1,3h0.1c0.7-2.1,2.5-3.5,4.6-3.6c0.8,0,1.6,0,2.4,0v2.3
		c-0.5,0-1-0.2-1.5-0.2c-3.6,0-5.5,2.6-5.6,6.5V38.1z"/>
	<path display="none" d="M34.5-1.7h-2.3V-3h2.3v-2.5l1.4-0.6V-3h2.7v1.3h-2.7v7.9c0,1.1,0.5,1.7,1.6,1.7c0.4,0,0.8,0,1.2-0.1v1.2
		c-0.4,0.1-1,0.2-1.4,0.2c-3,0-2.8-1.9-2.8-3.5V-1.7z"/>
	<path display="none" d="M42.1-1.2L42.1-1.2c0.9-1.5,2.2-2.1,3.7-2.1c3.8,0,4.1,3.4,4.1,4.7v7.3h-1.4V1.1c0-2-1.2-3.2-3.1-3.2
		c-2.3,0-3.4,1.9-3.4,4v6.8h-1.4V-8.2h1.4V-1.2z"/>
	<path display="none" d="M53.9,3.2c0,2.5,1.2,4.6,4.1,4.6c1.7,0,3-1.2,3.4-2.8h1.5c-0.7,2.8-2.5,4.1-5.3,4.1c-3.5,0-5.1-3-5.1-6.2
		c0-3.2,1.8-6.2,5.2-6.2c3.9,0,5.4,2.9,5.4,6.5H53.9z M61.5,1.9c-0.2-2.3-1.4-4-3.8-4c-2.3,0-3.5,1.9-3.7,4H61.5z"/>
	<path d="M260.8,35.1c0-1.8,1.5-3.3,3.4-3.3c1.8,0,3.3,1.5,3.3,3.3c0,1.8-1.5,3.4-3.3,3.4C262.3,38.4,260.8,36.9,260.8,35.1
		 M264.1,37.9c1.6,0,2.8-1.2,2.8-2.8c0-1.6-1.2-2.8-2.8-2.8c-1.6,0-2.8,1.2-2.8,2.8C261.3,36.7,262.5,37.9,264.1,37.9 M265.8,35.7
		c-0.1,0.8-0.8,1.3-1.5,1.3c-1.1,0-1.9-0.8-1.9-1.9c0-1.1,0.7-1.9,1.8-1.9c0.8,0,1.5,0.5,1.6,1.3h-0.5c-0.1-0.5-0.5-0.8-1.1-0.8
		c-0.9,0-1.3,0.7-1.3,1.5c0,0.7,0.5,1.5,1.3,1.5c0.5,0,1-0.4,1-0.9H265.8z"/>
</g>
</svg>
