<?xml version="1.0" encoding="utf-8"?>
<!-- Generator: Adobe Illustrator 17.1.0, SVG Export Plug-In . SVG Version: 6.00 Build 0)  -->
<!DOCTYPE svg PUBLIC "-//W3C//DTD SVG 1.1//EN" "http://www.w3.org/Graphics/SVG/1.1/DTD/svg11.dtd">
<svg version="1.1" id="Layer_1" xmlns="http://www.w3.org/2000/svg" xmlns:xlink="http://www.w3.org/1999/xlink" x="0px" y="0px"
	 viewBox="0 0 20.7 16.7" enable-background="new 0 0 20.7 16.7" xml:space="preserve">
<g>
	<polygon display="none" fill-rule="evenodd" clip-rule="evenodd" fill="#FFFFFF" points="-19.4,-21.4 40.1,-21.4 40.1,38.1 
		-19.4,38.1 -19.4,-21.4 	"/>
	<path fill-rule="evenodd" clip-rule="evenodd" d="M1.2,8.5c0,4.2,4.1,7.1,9,7.1c4.9,0,9.4-3,9.4-7.4c0-4.1-4.1-7.2-9.1-7.2
		C5.4,1.1,1.2,4.5,1.2,8.5L1.2,8.5z"/>
	<path fill-rule="evenodd" clip-rule="evenodd" fill="#FFFFFF" d="M10.6,1.9c4.5,0,8.2,2.6,8.2,6.4c0,3.9-4.2,6.6-8.6,6.6
		c-4.4,0-8.2-2.5-8.2-6.4C1.9,4.8,5.8,1.9,10.6,1.9L10.6,1.9z"/>
	<path fill-rule="evenodd" clip-rule="evenodd" d="M2.2,8.4c0,3.8,3.7,6.1,8,6.1c2.5,0,4.3-0.6,5.7-1.7c1.7-1.3,2.6-3,2.6-4.6
		c0-3.6-3.6-6.1-7.9-6.1C6,2.2,2.2,4.9,2.2,8.4L2.2,8.4z"/>
	<path fill-rule="evenodd" clip-rule="evenodd" fill="#FFFFFF" d="M4.2,5.5h0.4l0,0c0.2,0,0.2,0.1,0.2,0.4l0,0v1.4l0,0
		c0,0.2,0,0.3,0.1,0.3c0.4,0,0.8-0.6,0.8-1.1C5.9,6,5.9,5.6,6,5.1c0.2-1,0.9-1.7,2-1.7c0.8,0,1.4,0.4,1.7,1.2
		c0.1,0.3,0.2,0.7,0.2,1.1c0,0.9,0,0.9-0.3,0.9l0,0H9.3l0,0c-0.2,0-0.2-0.1-0.2-0.2c0-1.3,0-2.5-1.2-2.5c-0.9,0-1.1,0.6-1.2,2
		C6.6,7.3,6.5,7.4,5.4,7.9c0.3,0.2,1.1,0.7,1.1,2.2c0,0.1,0,0.1-0.2,0.1l0,0H6l0,0c-0.3,0-0.3,0-0.4-1c0-0.4-0.3-1-0.6-1
		c-0.1,0-0.1,0.1-0.1,0.3l0,0l0,1.5l0,0c0,0.1,0,0.2-0.1,0.2l0,0H4.3l0,0c-0.2,0-0.3,0-0.3-0.2l0,0l0-4.4l0,0C4,5.5,4,5.5,4.2,5.5
		L4.2,5.5z"/>
	<path fill-rule="evenodd" clip-rule="evenodd" fill="#FFFFFF" d="M9.9,10.8c0.2,0,0.2,0,0.3,0.6c0,0.4,0,0.5,0.1,0.7
		c0.2,0.5,0.6,0.9,1.1,0.9c0.9,0,1.1-0.8,1.1-2.2c0-0.3,0-0.4-0.1-0.7c-0.2,0.1-0.4,0.2-0.6,0.2c-0.6,0-1-0.5-1-1.4
		c0-1.1,0.5-1.8,1.1-1.8c0.2,0,0.3,0,0.6,0.2c0.1-0.1,0.2-0.1,0.3-0.1l0,0h0.3l0,0c0.2,0,0.2,0,0.2,0.1c0,0.2-0.1,0-0.1,0.9l0,0v2.4
		l0,0c0,1.7-0.5,3-2.1,3c-1.1,0-1.9-1-1.9-2.4c0-0.2,0-0.3,0.2-0.3l0,0H9.9L9.9,10.8z"/>
	<path fill-rule="evenodd" clip-rule="evenodd" d="M12.1,7.7c-0.3,0-0.5,0.3-0.5,1.1c0,0.5,0.2,0.8,0.5,0.8c0.3,0,0.3-0.2,0.3-1.4
		C12.4,7.9,12.4,7.7,12.1,7.7L12.1,7.7z"/>
	<path fill-rule="evenodd" clip-rule="evenodd" fill="#FFFFFF" d="M6.8,7.2c0,0,0-0.1,0.3-0.1l0,0h0.2l0,0c0.1,0,0.2,0,0.4,0.2
		C7.8,7.2,8,7.1,8.2,7.1c0.1,0,0.1,0.1,0.1,0.3l0,0v0.3l0.1,0l0,0C8.7,7.3,9,7,9.5,7c0.8,0,1.2,0.7,1.2,1.6c0,1-0.5,1.7-1.3,1.7
		c-0.7,0-1.2-0.6-1.2-1.5c0-0.3,0-0.5,0.1-1C7.7,7.9,7.6,8,7.6,9l0,0v1l0,0c0,0.3,0,0.3-0.3,0.3l0,0H7l0,0c-0.2,0-0.2,0-0.2-0.4l0,0
		L6.8,7.2L6.8,7.2z"/>
	<path fill-rule="evenodd" clip-rule="evenodd" d="M9.4,7.7C9.2,7.7,9,8.1,9,8.9c0,0.4,0.1,0.8,0.4,0.8c0.3,0,0.5-0.4,0.5-1.1
		C9.9,8.1,9.8,7.7,9.4,7.7L9.4,7.7z"/>
	<path fill-rule="evenodd" clip-rule="evenodd" fill="#FFFFFF" d="M14.5,8.7c-0.2,0-0.2,0.1-0.2,0.2c0,0.4,0.2,0.7,0.4,0.7
		c0.5,0,0.3-0.7,0.6-0.7l0,0h0.4l0,0c0.1,0,0.2,0,0.2,0.2c0,0.7-0.7,1.2-1.2,1.2c-0.9,0-1.3-0.7-1.3-1.7c0-0.9,0.5-1.7,1.3-1.7
		c0.8,0,1.2,0.6,1.2,1.5c0,0.2,0,0.2-0.3,0.2l0,0H14.5L14.5,8.7z"/>
	<path fill-rule="evenodd" clip-rule="evenodd" d="M14.9,8.2c0.1,0,0.2-0.1,0.2-0.2c0-0.2-0.2-0.4-0.4-0.4c-0.1,0-0.4,0.1-0.4,0.4
		c0,0.1,0.1,0.1,0.2,0.1l0,0H14.9L14.9,8.2z"/>
	<path fill-rule="evenodd" clip-rule="evenodd" fill="#FFFFFF" d="M16.3,7.1h0.3l0,0c0.1,0,0.2,0,0.3,0.2c0.4-0.2,0.4-0.2,0.6-0.2
		c0.1,0,0.2,0.1,0.2,0.2l0,0v0.3l0,0C17.6,8,17.2,7.6,17,8c-0.1,0.1-0.1,0.3-0.1,0.9l0,0V10l0,0c0,0.2,0,0.2-0.2,0.2l0,0h-0.3l0,0
		c-0.1,0-0.3,0-0.3-0.1l0,0l0-2.9l0,0C16.1,7.2,16.2,7.1,16.3,7.1L16.3,7.1z"/>
	<path fill-rule="evenodd" clip-rule="evenodd" fill="#FFFFFF" d="M13.9,10.6c0,0-0.1-0.1-0.2-0.1c-0.1,0-0.1,0-0.2,0.1
		c0,0-0.1,0.1-0.1,0.2c0,0.1,0,0.1,0.1,0.2c0,0,0.1,0.1,0.2,0.1s0.1,0,0.2-0.1c0,0,0.1-0.1,0.1-0.2C14,10.7,14,10.7,13.9,10.6
		L13.9,10.6L13.9,10.6L13.9,10.6z"/>
	<path fill-rule="evenodd" clip-rule="evenodd" d="M13.9,10.7c0,0,0.1,0.1,0.1,0.1c0,0.1,0,0.1-0.1,0.1c0,0-0.1,0.1-0.1,0.1
		c-0.1,0-0.1,0-0.1-0.1c0,0-0.1-0.1-0.1-0.1c0-0.1,0-0.1,0.1-0.1c0,0,0.1-0.1,0.1-0.1C13.8,10.6,13.9,10.6,13.9,10.7L13.9,10.7
		L13.9,10.7L13.9,10.7z"/>
	<path fill-rule="evenodd" clip-rule="evenodd" fill="#FFFFFF" d="M13.7,10.9L13.7,10.9l0-0.1h0l0,0c0,0,0,0,0.1,0c0,0,0,0,0,0.1
		l0,0v0l0,0l0,0c0,0,0,0,0,0c0,0,0,0,0,0l0,0h0l0,0l0,0c0,0,0,0,0,0c0,0,0,0,0,0l0,0v0l0,0c0,0,0,0,0,0c0,0,0,0,0,0c0,0,0,0,0,0
		c0,0,0,0,0-0.1c0,0,0-0.1,0-0.1c0,0,0,0-0.1,0l0,0h-0.1V10.9L13.7,10.9L13.7,10.9z"/>
	<path fill-rule="evenodd" clip-rule="evenodd" d="M13.8,10.8C13.8,10.8,13.8,10.8,13.8,10.8L13.8,10.8L13.8,10.8L13.8,10.8
		L13.8,10.8L13.8,10.8C13.8,10.7,13.8,10.7,13.8,10.8C13.8,10.7,13.8,10.7,13.8,10.8C13.8,10.8,13.8,10.8,13.8,10.8L13.8,10.8
		L13.8,10.8L13.8,10.8z"/>
</g>
</svg>
