<?xml version="1.0" encoding="utf-8"?>
<!-- Generator: Adobe Illustrator 17.1.0, SVG Export Plug-In . SVG Version: 6.00 Build 0)  -->
<!DOCTYPE svg PUBLIC "-//W3C//DTD SVG 1.1//EN" "http://www.w3.org/Graphics/SVG/1.1/DTD/svg11.dtd">
<svg version="1.1" id="Layer_1" xmlns="http://www.w3.org/2000/svg" xmlns:xlink="http://www.w3.org/1999/xlink" x="0px" y="0px"
	 viewBox="0 0 5 4" enable-background="new 0 0 5 4" xml:space="preserve">
<g>
	<polygon display="none" fill-rule="evenodd" clip-rule="evenodd" fill="#FFFFFF" points="-4.8,-5.3 9.8,-5.3 9.8,9.4 -4.8,9.4 
		-4.8,-5.3 	"/>
	<path fill-rule="evenodd" clip-rule="evenodd" d="M0.2,2.1c0,1,1,1.8,2.2,1.8c1.2,0,2.3-0.7,2.3-1.8c0-1-1-1.8-2.2-1.8
		C1.3,0.3,0.2,1.1,0.2,2.1L0.2,2.1z"/>
	<path fill-rule="evenodd" clip-rule="evenodd" fill="#FFFFFF" d="M2.5,0.5c1.1,0,2,0.6,2,1.6c0,1-1,1.6-2.1,1.6c-1.1,0-2-0.6-2-1.6
		C0.4,1.2,1.4,0.5,2.5,0.5L2.5,0.5z"/>
	<path fill-rule="evenodd" clip-rule="evenodd" d="M0.5,2.1c0,0.9,0.9,1.5,2,1.5c0.6,0,1.1-0.2,1.4-0.4C4.3,2.8,4.5,2.4,4.5,2
		c0-0.9-0.9-1.5-2-1.5C1.4,0.5,0.5,1.2,0.5,2.1L0.5,2.1z"/>
	<path fill-rule="evenodd" clip-rule="evenodd" fill="#FFFFFF" d="M1,1.3L1,1.3L1,1.3c0.2,0,0.2,0,0.2,0.1l0,0v0.3l0,0
		c0,0.1,0,0.1,0,0.1c0.1,0,0.2-0.1,0.2-0.3c0-0.1,0-0.2,0-0.3C1.5,1,1.6,0.8,1.9,0.8c0.2,0,0.4,0.1,0.4,0.3c0,0.1,0,0.2,0.1,0.3
		c0,0.2,0,0.2-0.1,0.2l0,0H2.2l0,0c0,0,0,0,0-0.1c0-0.3,0-0.6-0.3-0.6C1.7,1,1.6,1.1,1.6,1.4c0,0.3-0.1,0.4-0.3,0.5
		c0.1,0,0.3,0.2,0.3,0.5c0,0,0,0,0,0l0,0H1.4l0,0c-0.1,0-0.1,0-0.1-0.2C1.3,2.2,1.2,2,1.2,2c0,0,0,0,0,0.1l0,0l0,0.4l0,0
		c0,0,0,0,0,0l0,0H1l0,0c0,0-0.1,0-0.1-0.1l0,0L1,1.3L1,1.3C0.9,1.4,0.9,1.3,1,1.3L1,1.3z"/>
	<path fill-rule="evenodd" clip-rule="evenodd" fill="#FFFFFF" d="M2.4,2.7c0.1,0,0.1,0,0.1,0.1c0,0.1,0,0.1,0,0.2
		c0,0.1,0.1,0.2,0.3,0.2C3,3.2,3,3,3,2.7c0-0.1,0-0.1,0-0.2c-0.1,0-0.1,0-0.1,0c-0.1,0-0.2-0.1-0.2-0.3c0-0.3,0.1-0.5,0.3-0.5
		c0,0,0.1,0,0.1,0c0,0,0,0,0.1,0l0,0h0.1l0,0c0,0,0,0,0,0c0,0.1,0,0,0,0.2l0,0v0.6l0,0c0,0.4-0.1,0.7-0.5,0.7
		c-0.3,0-0.5-0.3-0.5-0.6c0-0.1,0-0.1,0.1-0.1l0,0H2.4L2.4,2.7z"/>
	<path fill-rule="evenodd" clip-rule="evenodd" d="M2.9,1.9C2.9,1.9,2.8,2,2.8,2.1c0,0.1,0,0.2,0.1,0.2C3,2.4,3,2.3,3,2
		C3,1.9,3,1.9,2.9,1.9L2.9,1.9z"/>
	<path fill-rule="evenodd" clip-rule="evenodd" fill="#FFFFFF" d="M1.6,1.8C1.6,1.8,1.6,1.7,1.6,1.8L1.6,1.8l0.1,0l0,0
		c0,0,0,0,0.1,0c0,0,0.1,0,0.1,0c0,0,0,0,0,0.1l0,0v0.1l0,0l0,0c0.1-0.1,0.1-0.2,0.3-0.2c0.2,0,0.3,0.2,0.3,0.4
		c0,0.3-0.1,0.4-0.3,0.4C2.1,2.5,2,2.4,2,2.2C2,2.1,2,2,2,1.9c-0.2,0-0.2,0-0.2,0.3l0,0v0.2l0,0c0,0.1,0,0.1-0.1,0.1l0,0H1.7l0,0
		c-0.1,0-0.1,0-0.1-0.1l0,0L1.6,1.8L1.6,1.8z"/>
	<path fill-rule="evenodd" clip-rule="evenodd" d="M2.3,1.9C2.2,1.9,2.2,2,2.2,2.2c0,0.1,0,0.2,0.1,0.2c0.1,0,0.1-0.1,0.1-0.3
		C2.4,2,2.4,1.9,2.3,1.9L2.3,1.9z"/>
	<path fill-rule="evenodd" clip-rule="evenodd" fill="#FFFFFF" d="M3.5,2.1C3.5,2.1,3.5,2.2,3.5,2.1c-0.1,0.1,0,0.2,0,0.2
		c0.1,0,0.1-0.2,0.2-0.2l0,0h0.1l0,0c0,0,0,0,0,0c0,0.2-0.2,0.3-0.3,0.3c-0.2,0-0.3-0.2-0.3-0.4c0-0.2,0.1-0.4,0.3-0.4
		c0.2,0,0.3,0.2,0.3,0.4c0,0,0,0-0.1,0l0,0H3.5L3.5,2.1z"/>
	<path fill-rule="evenodd" clip-rule="evenodd" d="M3.6,2C3.6,2,3.7,2,3.6,2c0-0.1,0-0.1-0.1-0.1c0,0-0.1,0-0.1,0.1
		C3.5,2,3.5,2,3.6,2L3.6,2L3.6,2L3.6,2z"/>
	<path fill-rule="evenodd" clip-rule="evenodd" fill="#FFFFFF" d="M4,1.7L4,1.7L4,1.7c0.1,0,0.1,0,0.1,0.1c0.1-0.1,0.1-0.1,0.1-0.1
		c0,0,0,0,0,0l0,0v0.1l0,0c0,0.1-0.1,0-0.1,0.1c0,0,0,0.1,0,0.2l0,0v0.3l0,0c0,0,0,0.1,0,0.1l0,0H4l0,0c0,0-0.1,0-0.1,0l0,0L4,1.7
		L4,1.7C3.9,1.8,3.9,1.7,4,1.7L4,1.7z"/>
	<path fill-rule="evenodd" clip-rule="evenodd" fill="#FFFFFF" d="M3.4,2.6C3.4,2.6,3.4,2.6,3.4,2.6C3.3,2.6,3.3,2.6,3.4,2.6
		C3.3,2.6,3.3,2.6,3.4,2.6C3.3,2.7,3.3,2.7,3.4,2.6C3.3,2.7,3.3,2.7,3.4,2.6C3.4,2.7,3.4,2.7,3.4,2.6C3.4,2.7,3.4,2.7,3.4,2.6
		C3.4,2.6,3.4,2.6,3.4,2.6L3.4,2.6L3.4,2.6L3.4,2.6z"/>
	<path fill-rule="evenodd" clip-rule="evenodd" d="M3.4,2.6C3.4,2.6,3.4,2.6,3.4,2.6C3.4,2.7,3.4,2.7,3.4,2.6
		C3.4,2.7,3.4,2.7,3.4,2.6C3.3,2.7,3.3,2.7,3.4,2.6C3.3,2.7,3.3,2.7,3.4,2.6C3.3,2.6,3.3,2.6,3.4,2.6C3.3,2.6,3.3,2.6,3.4,2.6
		C3.4,2.6,3.4,2.6,3.4,2.6L3.4,2.6L3.4,2.6L3.4,2.6z"/>
	<path fill-rule="evenodd" clip-rule="evenodd" fill="#FFFFFF" d="M3.3,2.7L3.3,2.7L3.3,2.7L3.3,2.7L3.3,2.7
		C3.3,2.7,3.3,2.7,3.3,2.7C3.4,2.7,3.4,2.7,3.3,2.7L3.3,2.7L3.3,2.7L3.3,2.7L3.3,2.7C3.4,2.7,3.4,2.7,3.3,2.7
		C3.4,2.7,3.4,2.7,3.3,2.7L3.3,2.7L3.3,2.7L3.3,2.7L3.3,2.7C3.4,2.7,3.4,2.7,3.3,2.7C3.4,2.7,3.4,2.7,3.3,2.7L3.3,2.7L3.3,2.7
		L3.3,2.7C3.4,2.7,3.4,2.7,3.3,2.7C3.4,2.7,3.4,2.7,3.3,2.7C3.4,2.7,3.4,2.7,3.3,2.7C3.4,2.7,3.4,2.6,3.3,2.7
		C3.4,2.6,3.4,2.6,3.3,2.7C3.4,2.6,3.3,2.6,3.3,2.7L3.3,2.7L3.3,2.7L3.3,2.7L3.3,2.7L3.3,2.7z"/>
	<path fill-rule="evenodd" clip-rule="evenodd" d="M3.3,2.7C3.3,2.7,3.3,2.7,3.3,2.7L3.3,2.7L3.3,2.7L3.3,2.7L3.3,2.7L3.3,2.7
		C3.3,2.6,3.3,2.6,3.3,2.7C3.4,2.6,3.4,2.6,3.3,2.7C3.4,2.6,3.4,2.7,3.3,2.7L3.3,2.7L3.3,2.7L3.3,2.7z"/>
</g>
</svg>
