<?xml version="1.0" encoding="utf-8"?>
<!-- Generator: Adobe Illustrator 17.1.0, SVG Export Plug-In . SVG Version: 6.00 Build 0)  -->
<!DOCTYPE svg PUBLIC "-//W3C//DTD SVG 1.1//EN" "http://www.w3.org/Graphics/SVG/1.1/DTD/svg11.dtd">
<svg version="1.1" id="Layer_1" xmlns="http://www.w3.org/2000/svg" xmlns:xlink="http://www.w3.org/1999/xlink" x="0px" y="0px"
	 viewBox="0 0 20.7 9.2" enable-background="new 0 0 20.7 9.2" xml:space="preserve">
<g>
	<path fill-rule="evenodd" clip-rule="evenodd" d="M19.6,6.1c-0.1,0-0.2,0-0.2,0.1c-0.1,0.1-0.1,0.1-0.1,0.2c0,0.1,0,0.2,0.1,0.2
		c0.1,0.1,0.1,0.1,0.2,0.1c0.1,0,0.2,0,0.2-0.1c0.1-0.1,0.1-0.1,0.1-0.2c0-0.1,0-0.2-0.1-0.2C19.7,6.1,19.7,6.1,19.6,6.1L19.6,6.1z
		 M19.6,6.1c0.1,0,0.1,0,0.2,0.1c0,0.1,0.1,0.1,0.1,0.2c0,0.1,0,0.1-0.1,0.2c0,0.1-0.1,0.1-0.2,0.1c-0.1,0-0.1,0-0.2-0.1
		c0,0-0.1-0.1-0.1-0.2c0-0.1,0-0.1,0.1-0.2C19.4,6.1,19.5,6.1,19.6,6.1L19.6,6.1z"/>
	<path fill-rule="evenodd" clip-rule="evenodd" d="M19.5,6.2L19.5,6.2l-0.1,0.4h0.1V6.4h0c0,0,0.1,0,0.1,0.1c0,0,0,0.1,0,0.1h0.1
		c0,0,0,0,0-0.1c0,0,0-0.1-0.1-0.1v0c0,0,0.1,0,0.1-0.1c0,0,0-0.1,0-0.1C19.6,6.2,19.6,6.2,19.5,6.2L19.5,6.2z M19.5,6.4L19.5,6.4
		l0-0.1l0,0C19.6,6.2,19.6,6.3,19.5,6.4C19.6,6.3,19.6,6.4,19.5,6.4L19.5,6.4z"/>
	<path fill-rule="evenodd" clip-rule="evenodd" d="M11.6,1.5c0-0.2-0.1-0.3-0.2-0.5c-0.1-0.1-0.3-0.2-0.5-0.2
		c-0.2,0-0.3,0.1-0.5,0.2c-0.1,0.1-0.2,0.3-0.2,0.5c0,0.2,0.1,0.3,0.2,0.5c0.1,0.1,0.3,0.2,0.5,0.2c0.2,0,0.3-0.1,0.5-0.2
		C11.5,1.8,11.6,1.7,11.6,1.5L11.6,1.5z"/>
	<path fill-rule="evenodd" clip-rule="evenodd" d="M13.4,1.5c0-0.2-0.1-0.3-0.2-0.5c-0.1-0.1-0.3-0.2-0.5-0.2
		c-0.2,0-0.3,0.1-0.5,0.2c-0.1,0.1-0.2,0.3-0.2,0.5c0,0.2,0.1,0.3,0.2,0.5c0.1,0.1,0.3,0.2,0.5,0.2c0.2,0,0.3-0.1,0.5-0.2
		C13.4,1.9,13.4,1.7,13.4,1.5L13.4,1.5z"/>
	<path fill-rule="evenodd" clip-rule="evenodd" d="M5.5,2.6C5.3,2.5,5.1,2.4,4.8,2.4c-0.5,0-0.8,0.2-1,0.7C3.7,2.6,3.4,2.4,2.9,2.4
		c-0.5,0-0.8,0.2-1,0.7V2.5H0.8v4.2h1.2V4.2c0-0.4,0-0.6,0.1-0.7c0.1-0.1,0.2-0.2,0.4-0.2c0.1,0,0.2,0,0.3,0.1
		c0,0.1,0.1,0.3,0.1,0.6v2.7h1.2V4.2c0-0.4,0-0.6,0.1-0.7c0.1-0.1,0.2-0.2,0.4-0.2c0.2,0,0.3,0,0.3,0.1c0,0.1,0.1,0.3,0.1,0.6v2.6
		h1.2V3.9c0-0.5,0-0.8-0.1-1C5.7,2.8,5.6,2.7,5.5,2.6L5.5,2.6z"/>
	<path fill-rule="evenodd" clip-rule="evenodd" d="M7.6,5V4.8h2.2c0-0.9-0.2-1.5-0.5-1.9C9,2.6,8.6,2.4,8.1,2.4
		C7.6,2.4,7.2,2.6,6.9,3C6.5,3.4,6.4,3.9,6.4,4.6c0,0.6,0.1,1.2,0.4,1.5c0.3,0.4,0.7,0.6,1.3,0.6c0.9,0,1.5-0.5,1.7-1.5H8.7
		C8.7,5.7,8.5,5.9,8.1,5.9C8,5.9,7.8,5.9,7.8,5.8C7.6,5.6,7.6,5.4,7.6,5L7.6,5z M7.6,4.1c0-0.6,0.2-0.9,0.5-0.9
		c0.4,0,0.5,0.3,0.5,0.8v0.1H7.6L7.6,4.1z"/>
	<polygon fill-rule="evenodd" clip-rule="evenodd" points="11.5,6.7 11.5,2.5 10.3,2.5 10.3,6.7 11.5,6.7 	"/>
	<path fill-rule="evenodd" clip-rule="evenodd" d="M13.4,2.5h-1.2v4c0,0.3,0,0.5-0.1,0.6c0,0.1-0.2,0.1-0.3,0.1l-0.2,0v1l0.6,0.1
		c0.3,0,0.5-0.1,0.7-0.2c0.2-0.1,0.3-0.3,0.3-0.5c0-0.2,0.1-0.5,0.1-1V2.5L13.4,2.5z"/>
	<path fill-rule="evenodd" clip-rule="evenodd" d="M14.4,3C14.1,3.4,14,3.9,14,4.6c0,0.6,0.1,1.2,0.4,1.5c0.3,0.4,0.7,0.6,1.3,0.6
		c0.9,0,1.5-0.5,1.7-1.5h-1c-0.1,0.4-0.3,0.6-0.6,0.6c-0.2,0-0.3-0.1-0.4-0.2c-0.1-0.1-0.2-0.4-0.2-0.7V4.8h2.2
		c0-0.9-0.2-1.5-0.5-1.9c-0.3-0.3-0.7-0.5-1.2-0.5C15.2,2.4,14.7,2.6,14.4,3L14.4,3z M16.3,4l0,0.1h-1.1c0-0.6,0.2-0.9,0.5-0.9
		C16.1,3.2,16.3,3.4,16.3,4L16.3,4z"/>
	<path fill-rule="evenodd" clip-rule="evenodd" d="M18.9,2.5h-1v4.2h1.2V4.9c0-0.9,0.3-1.3,0.8-1.3l0.2,0V2.4l-0.2,0
		c-0.5,0-0.8,0.4-1,1.1V2.5L18.9,2.5z"/>
</g>
</svg>
